PathFileType	4	(X/Y/Z)	RBDS05\RBDS05runT35.trc
DataRate	CameraRate	NumFrames	NumMarkers	Units	OrigDataRate	OrigDataStartFrame	OrigNumFrames
150.000000	150.000000	4	33	mm	150.000000	2812	4500
Frame#	Time	L.ASIS			L.Heel.Bottom			L.Heel.Lateral			L.Heel.Top			L.Iliac.Crest			L.MT1			L.MT5			L.PSIS			L.Shank.Bottom.Lateral			L.Shank.Bottom.Medial			L.Shank.Top.Lateral			L.Shank.Top.Medial			L.Thigh.Bottom.Lateral			L.Thigh.Bottom.Medial			L.Thigh.Top.Lateral			L.Thigh.Top.Medial			R.ASIS			R.ASY			R.Heel.Bottom			R.Heel.Lateral			R.Heel.Top			R.Iliac.Crest			R.MT1			R.MT5			R.PSIS			R.Shank.Bottom.Lateral			R.Shank.Bottom.Medial			R.Shank.Top.Lateral			R.Shank.Top.Medial			R.Thigh.Bottom.Lateral			R.Thigh.Bottom.Medial			R.Thigh.Top.Lateral			R.Thigh.Top.Medial			
		X1	Y1	Z1	X2	Y2	Z2	X3	Y3	Z3	X4	Y4	Z4	X5	Y5	Z5	X6	Y6	Z6	X7	Y7	Z7	X8	Y8	Z8	X9	Y9	Z9	X10	Y10	Z10	X11	Y11	Z11	X12	Y12	Z12	X13	Y13	Z13	X14	Y14	Z14	X15	Y15	Z15	X16	Y16	Z16	X17	Y17	Z17	X18	Y18	Z18	X19	Y19	Z19	X20	Y20	Z20	X21	Y21	Z21	X22	Y22	Z22	X23	Y23	Z23	X24	Y24	Z24	X25	Y25	Z25	X26	Y26	Z26	X27	Y27	Z27	X28	Y28	Z28	X29	Y29	Z29	X30	Y30	Z30	X31	Y31	Z31	X32	Y32	Z32	X33	Y33	Z33	

2813	18.74666666666667	2286.363779844	933.5897955119071	953.1783481752944	2269.503559199814	23.3962348084303	1048.045537477717	2298.998331264996	43.51591925307757	1005.33072497711	2279.289144182809	71.83291929639495	1051.015940871457	2224.831230538161	1002.379145618104	909.0653427726384	2471.694067762102	58.44735286343077	1079.988195657344	2443.29939077684	48.35411034087705	979.0666302725823	2135.926048258961	977.9722419344431	1009.96296763712	2336.460153825262	159.0386226357803	984.3978400780795	2293.967488971328	160.1801962870294	1012.418447929102	2329.895497371626	236.580657190265	964.3092527393591	2286.2347427469	242.1426762662847	994.3911930238131	2316.911392261473	591.4983679148213	920.8434064593251	2258.492294400591	563.5579938604719	954.0103237625187	2259.588074233513	685.1536981492218	906.7303878081748	2206.839664845735	660.680121262425	942.3912274239782	2287.28304935097	934.6466583692787	1175.690633974733	1772.893586363503	262.0845003978151	1131.523718687764	1710.620906000016	420.0747436925878	1067.186916361411	1714.336272447245	404.327789773883	1113.426412128597	1756.253225831062	414.4832678159807	1080.521145671453	2247.096119774741	988.8805520570211	1198.55816744518	1735.911929221157	213.6173934691199	1087.645698776626	1705.690729760186	260.8882928988465	1176.138613026632	2142.029427405007	981.2887633127573	1103.707545750641	1838.733552626242	395.9902338784764	1164.17534084412	1836.041949451534	428.606674553701	1120.402043856972	1909.679232670603	431.3285747176714	1183.338499401888	1906.366582354173	461.6750218643664	1139.379042783638	2169.418338645174	554.5815114110472	1240.320486611633	2106.201459414085	555.8550777450844	1202.089788403268	2166.560480298141	665.3571233392395	1245.111179000025	2106.555155339502	666.2030411155511	1208.211663935986	
2814	18.75333333333333	2284.610717568691	928.9487213827948	952.1069314949996	2246.492016060889	24.95307454336455	1048.41709058186	2277.002801238416	44.23331283181359	1005.903216905888	2258.495092173378	73.22991617876104	1051.876948586509	2223.892022847574	996.2059372472185	908.4447124845362	2451.145454372126	51.99396148226455	1080.746631692226	2422.41881999557	43.86597592279025	979.8461863675906	2133.871914730361	972.8277648246833	1010.668394241924	2322.341387723456	156.7499021801242	985.0124680194161	2279.486436187056	160.1625535669414	1012.277612549375	2319.87530879329	234.4563774838016	964.3183387052388	2276.093869717672	242.271943022038	993.6919746694175	2315.568332282756	587.8700126802202	919.4301154963167	2257.599314149514	559.716768876513	953.2227533344937	2257.498781980914	681.2205047230227	905.4625943935462	2205.429103390241	656.58611216835	941.8531975850614	2286.887939880271	930.0628247701904	1175.010316175057	1783.08209218416	264.1041251719818	1131.497802820284	1722.74821363821	424.2985424657875	1070.548424516059	1726.481114960219	407.6695010469189	1116.38503690396	1768.438371089587	417.8795034740356	1083.274533269202	2246.542976121028	982.9280007973484	1198.861989665248	1745.06014185345	217.1143055488962	1087.015714649337	1716.162997569913	263.1295126884353	1176.581541426253	2140.391100950985	975.7348103012531	1104.010162096304	1851.22820994327	395.8917831982914	1166.25810697145	1848.96839677049	429.497549193791	1123.257015384248	1922.867931764606	429.3702350758438	1185.906019593623	1920.034991638984	460.6912176318868	1142.611263752469	2179.760700925192	548.4775424748362	1241.892536041059	2116.043462948365	547.5931152266701	1204.588330178806	2173.580611477112	659.1829238753415	1246.138916786803	2113.128106733096	657.9350474195575	1210.105501297478	
2815	18.76	2282.478439444818	924.5419598401071	950.9421410375538	2223.338148002692	26.42939851756315	1048.826296337603	2254.553813006258	45.10715841221384	1006.473822930034	2236.998512542198	74.54884039422264	1052.712320414516	2222.580047719403	989.9646942906253	907.8314011652429	2429.790498752264	47.28841213191475	1081.33548803296	2400.777332981625	40.85334826147818	980.5086019801412	2131.482933944109	967.9571777433274	1011.547272592376	2307.196228274739	155.0633595901307	985.6214445547454	2264.12969326108	160.7653910909061	1012.202975362257	2308.775447935029	232.7539162231635	964.3536078707992	2265.059943183226	242.8375348785868	993.0993996346546	2313.344248267133	584.3229263244408	917.9774761756865	2255.817524611514	556.1034706431071	952.5058258782261	2254.740596913472	677.514969328345	904.2213980424813	2203.352945290643	652.8531923685077	941.4309224815831	2286.231167198744	925.6332093287532	1174.319047315598	1794.736103777098	265.2002746508522	1131.378041716077	1735.315393830952	427.3189296140395	1074.626991781327	1739.364242893953	409.6932900281885	1119.951330642745	1781.140510556624	420.2918627619538	1086.527829294637	2245.622612221503	977.0246450563864	1199.256651650279	1755.83616240828	219.6602194134269	1086.244298106354	1728.278615917277	263.8832489402973	1177.118287403865	2138.456710299182	970.401242979934	1104.431160995166	1864.578167305053	395.075901560974	1168.471504416514	1862.543917172002	429.7352288797249	1126.348584932541	1936.798698614328	426.94701230232	1188.48120522681	1934.237591947533	459.3062825837033	1145.948682459068	2190.630758776059	542.9696107100842	1243.093925363291	2126.419549154873	539.8273745579221	1206.875308469464	2180.977834133545	653.4691036454162	1246.889335175148	2120.040742631944	650.0434246857304	1211.940293264144	
2816	18.76666666666667	2280.011435083713	920.4985905111799	949.6966365403384	2200.186680173145	27.70277016667177	1049.199373420309	2231.815364822372	45.99911223823164	1006.961709226984	2214.939940703087	75.68589539972702	1053.412734046997	2220.775649142518	983.8546619687908	907.2668699156407	2407.801936737165	44.24088714336842	1081.733100833995	2378.551625306634	39.16042037919041	981.0191371106288	2128.838396318191	963.4903375474214	1012.603083402526	2291.024470073958	153.8649439061015	986.1360223096268	2247.890857109499	161.8071916773274	1012.105823042787	2296.503070327325	231.3627189887276	964.351001969236	2253.018021640589	243.6655545230842	992.5387603068522	2310.077735361328	580.8444600804509	916.5389590442976	2252.935212276709	552.7512140449197	951.8558899936504	2251.261855649463	674.0766955817606	903.0490204664993	2200.497309291431	649.5613874483922	941.1160604050891	2285.328380584077	921.4756453560284	1173.630929435844	1807.789627773814	265.3808057316024	1131.149133562472	1748.172187068565	429.0545848426487	1079.343929418246	1752.860973874723	410.3464113633406	1124.04850178104	1794.213431565403	421.6632450116539	1090.21398425358	2244.303833402445	971.3485034074828	1199.734768950947	1768.169810097357	221.2030725907594	1085.355158714852	1741.987526070303	263.1463224202894	1177.74047932348	2136.28551936747	965.4318122731457	1104.977274178007	1878.680913789011	393.5920763190692	1170.757790456443	1876.646964016233	429.3485277988502	1129.602175288394	1951.37576089503	424.157291396727	1190.991168040208	1948.856485209824	457.5985261882932	1149.307250211385	2201.970835908139	538.2563656934857	1243.900339982296	2137.321448315712	532.7666760419273	1208.84915434203	2188.712723450611	648.396396250648	1247.336505823845	2127.287892420748	642.7154428318383	1213.637171875324	
